<svg width="1440" height="312" viewBox="0 0 1440 312" fill="none" xmlns="http://www.w3.org/2000/svg">
<path fill-rule="evenodd" clip-rule="evenodd" d="M0 215.438L27 179.532C53 143.626 107 71.8128 160 93.7556C213 114.701 267 229.402 320 280.269C373 330.139 427 316.176 480 273.287C533 229.402 587 157.589 640 129.662C693 100.737 747 114.701 800 100.737C853 85.7764 907 42.8882 960 85.7764C1013 129.662 1067 258.326 1120 265.308C1173 273.287 1227 157.589 1280 121.683C1333 85.7764 1387 129.662 1413 150.607L1440 172.55V0H1413C1387 0 1333 0 1280 0C1227 0 1173 0 1120 0C1067 0 1013 0 960 0C907 0 853 0 800 0C747 0 693 0 640 0C587 0 533 0 480 0C427 0 373 0 320 0C267 0 213 0 160 0C107 0 53 0 27 0H0V215.438Z" fill="#202020"/>
</svg>
