<svg width='100%' height="100px" viewBox="0 0 1440 335" fill="#202020" xmlns="http://www.w3.org/2000/svg">
<path fill-rule="evenodd" clip-rule="evenodd" d="M0 10.6754L16.8 28.6935C34.8 46.7115 68.4 82.7476 103.2 100.766C136.8 118.784 171.6 118.784 205.2 118.784C240 118.784 274.8 118.784 308.4 118.784C343.2 118.784 376.8 118.784 411.6 136.802C445.2 154.82 480 190.856 514.8 184.85C548.4 178.844 583.2 130.796 616.8 130.796C651.6 130.796 685.2 178.844 720 166.832C754.8 154.82 788.4 82.7476 823.2 40.7055C856.8 -1.33657 891.6 -13.3486 925.2 16.6815C960 46.7115 994.8 118.784 1028.4 142.808C1063.2 166.832 1096.8 142.808 1131.6 160.826C1165.2 178.844 1200 238.904 1234.8 262.928C1268.4 286.952 1303.2 274.94 1336.8 238.904C1371.6 202.868 1405.2 142.808 1423.2 112.778L1440 82.7476V335H1423.2C1405.2 335 1371.6 335 1336.8 335C1303.2 335 1268.4 335 1234.8 335C1200 335 1165.2 335 1131.6 335C1096.8 335 1063.2 335 1028.4 335C994.8 335 960 335 925.2 335C891.6 335 856.8 335 823.2 335C788.4 335 754.8 335 720 335C685.2 335 651.6 335 616.8 335C583.2 335 548.4 335 514.8 335C480 335 445.2 335 411.6 335C376.8 335 343.2 335 308.4 335C274.8 335 240 335 205.2 335C171.6 335 136.8 335 103.2 335C68.4 335 34.8 335 16.8 335H0V10.6754Z" fill="#202020"/>
</svg>
